<svg width="128" height="128" viewBox="0 0 128 128" fill="none" xmlns="http://www.w3.org/2000/svg">
<path d="M74.1358 44.3902L123.243 44.4927C124.104 44.4948 124.245 45.7281 123.408 45.9237L66.3445 59.2635C55.6399 61.7657 45.4092 68.3644 39.6128 76.1285L17.7203 105.453C17.2276 106.115 16.1899 105.572 16.4524 104.79L26.0179 76.2446C28.3716 69.2212 25.8881 64.1884 20.1535 63.3913L2.65769 60.9581C1.8951 60.8525 1.802 59.7875 2.53426 59.5501L26.4028 51.8237C33.8342 49.4187 42.3672 43.1087 47.6258 35.8918L69.0016 6.55212C69.4817 5.89414 70.5153 6.40463 70.283 7.18606L62.7481 32.516C60.6287 39.6399 64.813 44.3703 74.1358 44.3902Z" fill="#E34B13"/>
</svg>
